<svg width="20" height="21" viewBox="0 0 20 21" fill="none" xmlns="http://www.w3.org/2000/svg">
<path d="M14.1667 2.1665H5.83335C3.53217 2.1665 1.66669 4.03198 1.66669 6.33317V14.6665C1.66669 16.9677 3.53217 18.8332 5.83335 18.8332H14.1667C16.4679 18.8332 18.3334 16.9677 18.3334 14.6665V6.33317C18.3334 4.03198 16.4679 2.1665 14.1667 2.1665Z" stroke="#2F234F" stroke-width="1.67" stroke-linecap="round" stroke-linejoin="round"/>
<path d="M13.3333 9.97476C13.4362 10.6683 13.3177 11.3766 12.9948 11.9989C12.6719 12.6213 12.1609 13.1259 11.5347 13.4412C10.9084 13.7564 10.1987 13.8661 9.50647 13.7547C8.81425 13.6433 8.17478 13.3165 7.67901 12.8207C7.18324 12.325 6.85642 11.6855 6.74504 10.9933C6.63365 10.3011 6.74337 9.59134 7.05859 8.96507C7.3738 8.33881 7.87847 7.82788 8.5008 7.50496C9.12313 7.18205 9.83144 7.06359 10.525 7.16643C11.2324 7.27133 11.8874 7.60098 12.3931 8.10668C12.8988 8.61239 13.2284 9.26733 13.3333 9.97476Z" stroke="#2F234F" stroke-width="1.67" stroke-linecap="round" stroke-linejoin="round"/>
<path d="M14.5833 5.9165H14.5916" stroke="#2F234F" stroke-width="1.67" stroke-linecap="round" stroke-linejoin="round"/>
</svg>
