<svg width="20" height="21" viewBox="0 0 20 21" fill="none" xmlns="http://www.w3.org/2000/svg">
<g clip-path="url(#clip0_25_290)">
<path d="M19.1666 3.00008C18.3686 3.56298 17.4851 3.9935 16.55 4.27508C16.0481 3.698 15.3811 3.28899 14.6392 3.10335C13.8973 2.91771 13.1162 2.96441 12.4017 3.23712C11.6872 3.50984 11.0737 3.99541 10.6441 4.62818C10.2146 5.26094 9.98973 6.01036 9.99998 6.77508V7.60841C8.53551 7.64639 7.08437 7.32159 5.77582 6.66295C4.46727 6.00431 3.34191 5.03228 2.49998 3.83341C2.49998 3.23712 -0.833354 11.3334 6.66665 14.6667C4.95042 15.8317 2.90594 16.4159 0.833313 16.3334C8.33331 20.5001 17.5 16.3334 17.5 6.75008C17.4992 6.51796 17.4769 6.28641 17.4333 6.05841C18.2838 5.21966 18.884 4.16067 19.1666 3.00008Z" stroke="#2F234F" stroke-width="1.67" stroke-linecap="round" stroke-linejoin="round"/>
</g>
<defs>
<clipPath id="clip0_25_290">
<rect width="20" height="20" fill="white" transform="translate(0 0.5)"/>
</clipPath>
</defs>
</svg>
